# xmcd
# 
# Track frame offsets:
#     150
#     11607
#     26040
#     41840
#     59060
#     69787
#     83710
#     98987
#     116332
#     133072
#     145975
#     157105
#     168877
#     181625
#     196405
# 
# Disc length: 2799
# 
# Revision: 2
# Processed by: cddbd v1.5.2PL0 Copyright (c) Steve Scherf et al.
# Submitted via: fre:ac v1.0.31
# 
DISCID=ca0aed0f
DTITLE=Chico Buarque - Uma Palavra
DYEAR=1995
DGENRE=MPB
TTITLE0=Estação derradeira
TTITLE1=Morro Dois Irmãos
TTITLE2=Ela é dançarina
TTITLE3=Samba e amor
TTITLE4=A Rosa
TTITLE5=Joana francesa
TTITLE6=O futebol
TTITLE7=Ela desatinou
TTITLE8=Quem te viu, quem te vê
TTITLE9=Pelas tabelas
TTITLE10=Eu te amo
TTITLE11=Valsa brasileira
TTITLE12=Amor barato
TTITLE13=Vida
TTITLE14=Uma palavra
EXTD=
EXTT0=
EXTT1=
EXTT2=
EXTT3=
EXTT4=
EXTT5=
EXTT6=
EXTT7=
EXTT8=
EXTT9=
EXTT10=
EXTT11=
EXTT12=
EXTT13=
EXTT14=
PLAYORDER=
